<mxfile host="65bd71144e">
    <diagram name="Page-1" id="64ausgM9Pn914HEW3O_X">
        <mxGraphModel dx="710" dy="417" grid="1" gridSize="10" guides="1" tooltips="1" connect="1" arrows="1" fold="1" page="1" pageScale="1" pageWidth="1700" pageHeight="1100" math="0" shadow="0">
            <root>
                <mxCell id="0"/>
                <mxCell id="1" parent="0"/>
                <mxCell id="7Ii_YHDkhtwBlRMhQApf-12" style="edgeStyle=orthogonalEdgeStyle;rounded=0;orthogonalLoop=1;jettySize=auto;html=1;entryX=0.5;entryY=0;entryDx=0;entryDy=0;" parent="1" source="7Ii_YHDkhtwBlRMhQApf-1" target="7Ii_YHDkhtwBlRMhQApf-3" edge="1">
                    <mxGeometry relative="1" as="geometry"/>
                </mxCell>
                <mxCell id="7Ii_YHDkhtwBlRMhQApf-1" value="Start" style="strokeWidth=2;html=1;shape=mxgraph.flowchart.terminator;whiteSpace=wrap;" parent="1" vertex="1">
                    <mxGeometry x="250" y="80" width="100" height="60" as="geometry"/>
                </mxCell>
                <mxCell id="7Ii_YHDkhtwBlRMhQApf-2" value="Stop" style="strokeWidth=2;html=1;shape=mxgraph.flowchart.terminator;whiteSpace=wrap;" parent="1" vertex="1">
                    <mxGeometry x="250" y="880" width="100" height="60" as="geometry"/>
                </mxCell>
                <mxCell id="7Ii_YHDkhtwBlRMhQApf-8" style="edgeStyle=orthogonalEdgeStyle;rounded=0;orthogonalLoop=1;jettySize=auto;html=1;entryX=0.5;entryY=0;entryDx=0;entryDy=0;" parent="1" source="7Ii_YHDkhtwBlRMhQApf-3" target="7Ii_YHDkhtwBlRMhQApf-4" edge="1">
                    <mxGeometry relative="1" as="geometry"/>
                </mxCell>
                <mxCell id="7Ii_YHDkhtwBlRMhQApf-3" value="h, w = 0" style="rounded=0;whiteSpace=wrap;html=1;" parent="1" vertex="1">
                    <mxGeometry x="240" y="190" width="120" height="50" as="geometry"/>
                </mxCell>
                <mxCell id="7Ii_YHDkhtwBlRMhQApf-9" style="edgeStyle=orthogonalEdgeStyle;rounded=0;orthogonalLoop=1;jettySize=auto;html=1;entryX=0.5;entryY=0;entryDx=0;entryDy=0;" parent="1" source="7Ii_YHDkhtwBlRMhQApf-4" target="7Ii_YHDkhtwBlRMhQApf-5" edge="1">
                    <mxGeometry relative="1" as="geometry"/>
                </mxCell>
                <mxCell id="7Ii_YHDkhtwBlRMhQApf-4" value="OUTPUT &quot;Enter height: &quot;" style="shape=parallelogram;perimeter=parallelogramPerimeter;whiteSpace=wrap;html=1;fixedSize=1;" parent="1" vertex="1">
                    <mxGeometry x="210" y="280" width="180" height="60" as="geometry"/>
                </mxCell>
                <mxCell id="7Ii_YHDkhtwBlRMhQApf-10" style="edgeStyle=orthogonalEdgeStyle;rounded=0;orthogonalLoop=1;jettySize=auto;html=1;" parent="1" source="7Ii_YHDkhtwBlRMhQApf-5" target="7Ii_YHDkhtwBlRMhQApf-6" edge="1">
                    <mxGeometry relative="1" as="geometry"/>
                </mxCell>
                <mxCell id="7Ii_YHDkhtwBlRMhQApf-5" value="INPUT h" style="shape=parallelogram;perimeter=parallelogramPerimeter;whiteSpace=wrap;html=1;fixedSize=1;" parent="1" vertex="1">
                    <mxGeometry x="210" y="380" width="180" height="60" as="geometry"/>
                </mxCell>
                <mxCell id="7Ii_YHDkhtwBlRMhQApf-11" style="edgeStyle=orthogonalEdgeStyle;rounded=0;orthogonalLoop=1;jettySize=auto;html=1;entryX=0.5;entryY=0;entryDx=0;entryDy=0;" parent="1" source="7Ii_YHDkhtwBlRMhQApf-6" target="7Ii_YHDkhtwBlRMhQApf-7" edge="1">
                    <mxGeometry relative="1" as="geometry"/>
                </mxCell>
                <mxCell id="7Ii_YHDkhtwBlRMhQApf-6" value="OUTPUT &quot;Enter width: &quot;" style="shape=parallelogram;perimeter=parallelogramPerimeter;whiteSpace=wrap;html=1;fixedSize=1;" parent="1" vertex="1">
                    <mxGeometry x="210" y="480" width="180" height="60" as="geometry"/>
                </mxCell>
                <mxCell id="7Ii_YHDkhtwBlRMhQApf-15" style="edgeStyle=orthogonalEdgeStyle;rounded=0;orthogonalLoop=1;jettySize=auto;html=1;entryX=0.5;entryY=0;entryDx=0;entryDy=0;" parent="1" source="7Ii_YHDkhtwBlRMhQApf-7" target="7Ii_YHDkhtwBlRMhQApf-13" edge="1">
                    <mxGeometry relative="1" as="geometry"/>
                </mxCell>
                <mxCell id="7Ii_YHDkhtwBlRMhQApf-7" value="INPUT w" style="shape=parallelogram;perimeter=parallelogramPerimeter;whiteSpace=wrap;html=1;fixedSize=1;" parent="1" vertex="1">
                    <mxGeometry x="210" y="580" width="180" height="60" as="geometry"/>
                </mxCell>
                <mxCell id="7Ii_YHDkhtwBlRMhQApf-16" style="edgeStyle=orthogonalEdgeStyle;rounded=0;orthogonalLoop=1;jettySize=auto;html=1;entryX=0.5;entryY=0;entryDx=0;entryDy=0;" parent="1" source="7Ii_YHDkhtwBlRMhQApf-13" target="7Ii_YHDkhtwBlRMhQApf-14" edge="1">
                    <mxGeometry relative="1" as="geometry"/>
                </mxCell>
                <mxCell id="7Ii_YHDkhtwBlRMhQApf-13" value="result = (h * w) / 2" style="rounded=0;whiteSpace=wrap;html=1;" parent="1" vertex="1">
                    <mxGeometry x="240" y="680" width="120" height="60" as="geometry"/>
                </mxCell>
                <mxCell id="7Ii_YHDkhtwBlRMhQApf-17" value="" style="edgeStyle=orthogonalEdgeStyle;rounded=0;orthogonalLoop=1;jettySize=auto;html=1;" parent="1" source="7Ii_YHDkhtwBlRMhQApf-14" target="7Ii_YHDkhtwBlRMhQApf-2" edge="1">
                    <mxGeometry relative="1" as="geometry"/>
                </mxCell>
                <mxCell id="7Ii_YHDkhtwBlRMhQApf-14" value="OUTPUT &quot;Triagle Area : &quot; result" style="shape=parallelogram;perimeter=parallelogramPerimeter;whiteSpace=wrap;html=1;fixedSize=1;" parent="1" vertex="1">
                    <mxGeometry x="200" y="780" width="200" height="60" as="geometry"/>
                </mxCell>
            </root>
        </mxGraphModel>
    </diagram>
</mxfile>